<svg xmlns="http://www.w3.org/2000/svg" viewBox="0 0 128 128">
  <defs>
    <linearGradient id="bg" x1="0" y1="0" x2="1" y2="1">
      <stop offset="0" stop-color="#20291d"/>
      <stop offset="1" stop-color="#111511"/>
    </linearGradient>
    <linearGradient id="lime" x1="0" y1="0" x2="0" y2="1">
      <stop offset="0" stop-color="#dcff9a"/>
      <stop offset="1" stop-color="#a9df62"/>
    </linearGradient>
  </defs>
  <rect x="4" y="4" width="120" height="120" rx="33" fill="url(#bg)"/>
  <rect x="4.75" y="4.75" width="118.5" height="118.5" rx="32.25" fill="none" stroke="#789354" stroke-opacity=".48" stroke-width="1.5"/>
  <path d="M25 39c15-7 27-6 39 2 12-8 24-9 39-2v49c-15-6-27-5-39 3-12-8-24-9-39-3V39Z" fill="#283321" stroke="#718d4e" stroke-width="3" stroke-linejoin="round"/>
  <path d="M64 42v48" stroke="#8daa63" stroke-width="3" stroke-linecap="round"/>
  <path d="M37 52h13m-13 10h13m28-10h13m-13 10h13" stroke="#637454" stroke-width="3" stroke-linecap="round"/>
  <rect x="38" y="69" width="7" height="19" rx="3.5" fill="url(#lime)"/>
  <rect x="52" y="62" width="7" height="26" rx="3.5" fill="url(#lime)"/>
  <rect x="69" y="56" width="7" height="32" rx="3.5" fill="url(#lime)"/>
  <rect x="83" y="66" width="7" height="22" rx="3.5" fill="url(#lime)"/>
</svg>
